<?xml version="1.0" encoding="UTF-8"?>
<svg width="1669px" height="226px" viewBox="0 0 1669 226" version="1.1" xmlns="http://www.w3.org/2000/svg" xmlns:xlink="http://www.w3.org/1999/xlink">
    <title>Group 9</title>
    <g id="Page-1" stroke="none" stroke-width="1" fill="none" fill-rule="evenodd">
        <g id="Group-9">
            <rect id="Rectangle" fill="#1E293B" x="0" y="0" width="1669" height="226"></rect>
            <path d="M125.320052,80.3407248 L125.40136,80.6294625 L130.032964,97.914846 C130.448905,99.4671578 129.528568,101.062424 127.977263,101.478095 C126.481363,101.87892 124.94514,101.0365 124.46437,99.5839539 L124.41535,99.4200813 L119.783745,82.1346978 C118.972534,79.1072163 115.904831,77.2752426 112.876154,77.9650888 L112.659918,78.0186702 L78.1271767,87.2716903 C75.1016601,88.082375 73.2717118,91.151209 73.9621534,94.1818128 L74.0157749,94.3981885 L87.2704481,143.865302 C88.0816593,146.892784 91.1493626,148.724757 94.1780389,148.034911 L94.3942756,147.98133 L103.788191,145.464238 C105.339495,145.048567 106.934164,145.96994 107.350105,147.522252 C107.751191,149.019124 106.909742,150.555937 105.458169,151.036506 L105.294404,151.085501 L95.9004884,153.602593 C89.8021816,155.236629 83.5135714,151.683762 81.7341412,145.659275 L81.6528335,145.370537 L68.3981603,95.9034238 C66.7630627,89.8011564 70.3118911,83.5101625 76.3324148,81.731687 L76.6209638,81.6504274 L111.153705,72.3974073 C117.252012,70.7633709 123.540622,74.3162375 125.320052,80.3407248 Z M138.361594,108.760057 C142.451876,111.11783 143.906377,116.307076 141.682228,120.435223 L141.552397,120.667732 L130.266373,140.141392 C130.050974,140.513158 129.756274,140.831804 129.404266,141.075335 L129.223587,141.19074 L118.720025,147.368415 C118.490655,147.503423 118.247211,147.604451 117.997206,147.67144 C117.250002,147.871652 116.44166,147.768933 115.758332,147.363787 C114.903159,146.856734 114.371107,145.951388 114.337164,144.967327 L114.337068,144.76956 L114.737389,132.821492 C114.751196,132.411435 114.851578,132.009785 115.031252,131.642455 L115.127663,131.461771 L126.438752,111.952366 C128.845137,107.791209 134.194352,106.358041 138.361594,108.760057 Z M128.160865,120.576723 L120.528765,133.740586 L120.329873,139.679161 L125.614103,136.571175 L133.200245,123.481443 L128.160865,120.576723 Z M328.777614,99.7448288 C330.183017,99.7448288 331.311948,100.211919 332.164407,101.146101 C333.016865,102.080282 333.443094,103.493087 333.443094,105.384516 L333.443094,105.384516 L333.443094,132.752566 L333.438301,133.084638 C333.390378,134.718644 332.983025,135.957327 332.216245,136.800685 C331.398346,137.700267 330.344293,138.150058 329.054086,138.150058 C327.76388,138.150058 326.698307,137.682967 325.857369,136.748786 C325.01643,135.814604 324.595961,134.505597 324.595961,132.821765 L324.595961,132.821765 L324.595961,131.610789 L324.217517,132.078947 C323.202646,133.304589 322.142264,134.347978 321.036372,135.209117 C319.792244,136.177897 318.432919,136.898716 316.958397,137.371573 C315.483875,137.84443 313.801998,138.080859 311.912767,138.080859 C309.631865,138.080859 307.587118,137.608002 305.778524,136.662287 C303.969931,135.716573 302.570287,134.413333 301.579592,132.752566 C300.404582,130.745806 299.817077,127.862531 299.817077,124.10274 L299.817077,124.10274 L299.817077,105.384516 L299.821502,105.055702 C299.868697,103.328531 300.293451,102.02533 301.095765,101.146101 C301.948223,100.211919 303.077154,99.7448288 304.482558,99.7448288 C305.911001,99.7448288 307.062971,100.217686 307.938469,101.1634 C308.813966,102.109115 309.251715,103.516153 309.251715,105.384516 L309.251715,105.384516 L309.251715,120.504412 L309.254987,121.00385 C309.281162,122.976624 309.464387,124.649675 309.804661,126.023001 C310.173291,127.510771 310.835674,128.675615 311.79181,129.517531 C312.747945,130.359447 314.043912,130.780406 315.67971,130.780406 C317.269429,130.780406 318.766991,130.307548 320.172395,129.361834 C321.577798,128.41612 322.603052,127.182078 323.248156,125.659708 C323.778062,124.321869 324.043015,121.392461 324.043015,116.871485 L324.043015,116.871485 L324.043015,105.384516 L324.047559,105.059593 C324.09603,103.352215 324.532264,102.053484 325.356261,101.1634 C326.231759,100.217686 327.37221,99.7448288 328.777614,99.7448288 Z M515.287224,99.7448288 C518.969566,99.7448288 522.128324,100.521913 524.7635,102.076081 C527.398676,103.63025 529.37218,105.639157 530.684015,108.102801 C531.995849,110.566446 532.651766,113.07614 532.651766,115.631884 C532.651766,118.00343 531.972834,119.54033 530.614971,120.242584 C529.257107,120.944837 527.346893,121.295964 524.884327,121.295964 L524.884327,121.295964 L506.449605,121.295964 L506.459655,121.720847 C506.531972,123.687874 506.960146,125.434274 507.744178,126.960045 C508.584212,128.5948 509.700422,129.826622 511.092807,130.655512 C512.485193,131.484402 514.02142,131.898847 515.701488,131.898847 C516.829205,131.898847 517.85911,131.766455 518.791202,131.50167 C519.723295,131.236886 520.62662,130.822441 521.501176,130.258336 C522.375732,129.69423 523.181244,129.089831 523.917712,128.445139 C524.65418,127.800447 525.609288,126.925508 526.783034,125.820321 C527.266341,125.405876 527.95678,125.198654 528.854351,125.198654 C529.820966,125.198654 530.603463,125.463438 531.201844,125.993007 C531.800224,126.522575 532.099415,127.270879 532.099415,128.237917 C532.099415,129.089831 531.765702,130.08565 531.098278,131.225374 C530.430854,132.365097 529.423963,133.458771 528.077607,134.506396 C526.731251,135.554021 525.039676,136.423204 523.00288,137.113945 C520.966085,137.804687 518.624346,138.150058 515.977663,138.150058 C509.924815,138.150058 505.218322,136.423204 501.858186,132.969496 C498.498049,129.515789 496.817981,124.830259 496.817981,118.912906 C496.817981,116.126915 497.232244,113.542391 498.060771,111.159333 C498.889298,108.776274 500.097566,106.732831 501.685576,105.029002 C503.273586,103.325172 505.229829,102.01852 507.554307,101.109043 C509.878785,100.199567 512.456424,99.7448288 515.287224,99.7448288 Z M479.772928,86.9997308 C480.971174,86.9997308 482.054204,87.4487208 483.022018,88.3467009 C483.667228,88.9453543 484.076245,89.6764022 484.249069,90.5398446 C484.421893,91.403287 484.508305,92.6293751 484.508305,94.2181091 L484.508305,94.2181091 L484.508305,100.64212 L487.964784,100.64212 L488.246329,100.646966 C489.445339,100.688964 490.371152,101.003944 491.023769,101.591907 C491.726586,102.225098 492.077995,103.036734 492.077995,104.026815 C492.077995,105.293197 491.576805,106.179664 490.574426,106.686217 C489.572047,107.19277 488.137608,107.446046 486.271109,107.446046 L486.271109,107.446046 L484.508305,107.446046 L484.508305,124.78397 L484.509385,125.145296 C484.517306,126.444217 484.568793,127.457763 484.663846,128.185932 C484.767541,128.980299 485.044059,129.625003 485.493401,130.120043 C485.942744,130.615084 486.674365,130.862604 487.688266,130.862604 C488.241303,130.862604 488.990207,130.764747 489.934978,130.569033 C490.879749,130.37332 491.617131,130.275463 492.147125,130.275463 C492.90755,130.275463 493.593085,130.580546 494.20373,131.190712 C494.814375,131.800878 495.119697,132.554951 495.119697,133.452931 C495.119697,134.97259 494.290142,136.135359 492.631032,136.941238 C490.971922,137.747118 488.586951,138.150058 485.476119,138.150058 C482.52659,138.150058 480.2914,137.655017 478.770549,136.664937 C477.249698,135.674856 476.253079,134.304861 475.780694,132.554951 C475.308308,130.805041 475.072115,128.46799 475.072115,125.543799 L475.072115,125.543799 L475.072115,107.446046 L473.827783,107.446046 L473.541389,107.441112 C472.321745,107.398352 471.380266,107.077644 470.716951,106.478991 C470.002612,105.834287 469.645442,105.016895 469.645442,104.026815 C469.645442,103.036734 470.019894,102.225098 470.768798,101.591907 C471.517702,100.958716 472.606493,100.64212 474.035171,100.64212 L474.035171,100.64212 L475.072115,100.64212 L475.072955,94.6048594 C475.079116,93.2619666 475.119162,92.1947758 475.193092,91.403287 C475.273743,90.5398446 475.498414,89.7972841 475.867106,89.1756056 C476.235797,88.530902 476.76579,88.0070802 477.457086,87.6041405 C478.148382,87.2012007 478.920329,86.9997308 479.772928,86.9997308 Z M458.894,99.7448288 C460.287464,99.7448288 461.437071,100.217686 462.342823,101.1634 C463.248574,102.109115 463.70145,103.423888 463.70145,105.107721 L463.70145,105.107721 L463.70145,132.406573 L463.696748,132.735566 C463.646603,134.464653 463.195294,135.785093 462.342823,136.696887 C461.437071,137.665667 460.287464,138.150058 458.894,138.150058 C457.500537,138.150058 456.368348,137.654134 455.497433,136.662287 C454.626518,135.670441 454.191061,134.251869 454.191061,132.406573 L454.191061,132.406573 L454.191061,105.384516 L454.195581,105.059593 C454.243798,103.352215 454.677749,102.053484 455.497433,101.1634 C456.368348,100.217686 457.500537,99.7448288 458.894,99.7448288 Z M440.674082,99.7448288 C442.660394,99.7448288 444.588965,100.240752 446.459795,101.232599 C448.330624,102.224446 449.266039,103.539219 449.266039,105.17692 C449.266039,106.33023 448.867621,107.281711 448.070787,108.031362 C447.273952,108.781014 446.413601,109.15584 445.489735,109.15584 C445.143285,109.15584 444.306031,108.942477 442.977974,108.515753 C441.649916,108.089028 440.47776,107.875666 439.461507,107.875666 C438.075708,107.875666 436.943972,108.238958 436.066299,108.965544 C435.188626,109.692129 434.507274,110.770474 434.022245,112.200579 C433.537215,113.630683 433.202313,115.331816 433.01754,117.303976 C432.832767,119.276137 432.74038,121.680788 432.74038,124.517931 L432.74038,124.517931 L432.74038,132.406573 L432.735705,132.739457 C432.685835,134.488338 432.237009,135.813248 431.389226,136.714186 C430.488456,137.671434 429.345171,138.150058 427.959372,138.150058 C426.596669,138.150058 425.476481,137.665667 424.598808,136.696887 C423.721135,135.728106 423.282299,134.298002 423.282299,132.406573 L423.282299,132.406573 L423.282299,106.111101 L423.284911,105.811554 C423.356309,101.767071 424.891366,99.7448288 427.890082,99.7448288 C429.460655,99.7448288 430.592391,100.240752 431.285291,101.232599 C431.97819,102.224446 432.359285,103.68915 432.428575,105.626711 C433.560311,103.68915 434.720918,102.224446 435.910396,101.232599 C437.099874,100.240752 438.687769,99.7448288 440.674082,99.7448288 Z M398.36986,99.7448288 C400.811965,99.7448288 403.052482,100.102355 405.09141,100.817407 C407.130338,101.53246 408.858243,102.455108 410.275125,103.585352 C411.692007,104.715596 412.774827,105.920805 413.523586,107.200979 C414.272344,108.481153 414.646724,109.674829 414.646724,110.782007 C414.646724,111.912251 414.226267,112.869499 413.385353,113.65375 C412.54444,114.438 411.524976,114.830126 410.326962,114.830126 C409.543645,114.830126 408.892801,114.628297 408.374429,114.224638 C407.856058,113.820979 407.27433,113.169359 406.629245,112.269777 C405.477309,110.516746 404.273535,109.201972 403.017924,108.325457 C401.762313,107.448941 400.166881,107.010683 398.231628,107.010683 C395.443941,107.010683 393.197665,108.100561 391.492799,110.280317 C389.787932,112.460073 388.935499,115.44138 388.935499,119.224238 C388.935499,121.000335 389.154367,122.632269 389.592103,124.120039 C390.029839,125.607809 390.663404,126.876451 391.492799,127.925963 C392.322193,128.975475 393.324378,129.771259 394.499353,130.313315 C395.674328,130.855371 396.964497,131.126399 398.36986,131.126399 C400.259036,131.126399 401.877507,130.688141 403.225273,129.811625 C404.573038,128.935109 405.765293,127.59727 406.802036,125.798106 C407.378004,124.73706 408.00005,123.906677 408.668173,123.306956 C409.336296,122.707234 410.154171,122.407374 411.121798,122.407374 C412.273734,122.407374 413.229842,122.845632 413.99012,123.722147 C414.750398,124.598663 415.130537,125.532844 415.130537,126.524691 C415.130537,127.701067 414.779197,128.958176 414.076515,130.296015 C413.373834,131.633855 412.302533,132.908263 410.862612,134.119239 C409.422691,135.330214 407.608391,136.304761 405.419712,137.04288 C403.231032,137.780998 400.765888,138.150058 398.024279,138.150058 C392.19548,138.150058 387.64533,136.448925 384.37383,133.04666 C381.102331,129.644395 379.466581,125.083053 379.466581,119.362635 C379.466581,115.487513 380.215339,112.062181 381.712857,109.086641 C383.210374,106.111101 385.376015,103.810247 388.209779,102.18408 C391.043543,100.557913 394.430237,99.7448288 398.36986,99.7448288 Z M166.233256,86.6598615 L166.60906,86.6621638 C168.330167,86.6836516 169.594273,86.8555542 170.401378,87.1778715 C171.266133,87.5232116 171.906052,88.1448236 172.321135,89.0427076 C172.736217,89.9405917 173.20895,91.402531 173.739334,93.4285258 L173.739334,93.4285258 L181.10705,121.159329 L188.474767,93.4285258 L188.573538,93.0552618 C189.064017,91.221992 189.503826,89.8844739 189.892966,89.0427076 C190.308048,88.1448236 190.947967,87.5232116 191.812723,87.1778715 C192.677478,86.8325315 194.066852,86.6598615 195.980844,86.6598615 L195.980844,86.6598615 L199.163144,86.6598615 L199.525936,86.6643806 C201.31625,86.7095716 202.75188,87.0936949 203.832824,87.8167506 C204.985831,88.5880099 205.562335,90.0787277 205.562335,92.2889037 L205.562335,92.2889037 L205.562335,132.348345 L205.557847,132.684604 C205.509971,134.451215 205.079089,135.789557 204.265202,136.69963 C203.400446,137.666582 202.241674,138.150058 200.788885,138.150058 C199.428336,138.150058 198.309919,137.666582 197.433633,136.69963 C196.557348,135.732677 196.119205,134.282249 196.119205,132.348345 L196.119205,132.348345 L196.119205,97.399936 L187.990504,129.654693 L187.892205,130.040975 C187.406456,131.939671 187.006844,133.347673 186.693371,134.264982 C186.358998,135.243446 185.74214,136.135574 184.842794,136.941368 C183.943448,137.747161 182.6982,138.150058 181.10705,138.150058 C179.907923,138.150058 178.893276,137.891053 178.063111,137.373043 C177.232946,136.855033 176.587262,136.193131 176.126059,135.387337 C175.664856,134.581544 175.301659,133.689416 175.036467,132.710952 C174.771275,131.732489 174.500319,130.713736 174.223597,129.654693 L174.223597,129.654693 L166.094895,97.399936 L166.094895,132.348345 L166.090407,132.684604 C166.042531,134.451215 165.61165,135.789557 164.797762,136.69963 C163.933007,137.666582 162.785765,138.150058 161.356035,138.150058 C159.972427,138.150058 158.84248,137.672337 157.966194,136.716897 C157.089909,135.761456 156.651766,134.305272 156.651766,132.348345 L156.651766,132.348345 L156.651766,92.2889037 L156.655339,91.9919755 C156.705366,89.9446943 157.280679,88.5529527 158.381277,87.8167506 C159.534284,87.0454912 161.090844,86.6598615 163.050956,86.6598615 L163.050956,86.6598615 L166.233256,86.6598615 Z M231.599227,99.7448288 C235.741224,99.7448288 238.997294,100.234104 241.367437,101.212655 C243.73758,102.191205 245.411637,103.739617 246.389609,105.857891 C247.36758,107.976165 247.856566,110.785181 247.856566,114.284938 L247.856566,114.284938 L247.856061,115.389903 C247.85443,117.127508 247.848845,118.635701 247.839308,119.914481 C247.827802,121.457137 247.810544,123.172479 247.787533,125.060506 C247.787533,126.833409 248.080924,128.681143 248.667707,130.603706 C249.25449,132.52627 249.547881,133.763849 249.547881,134.316442 C249.547881,135.28348 249.093412,136.164176 248.184474,136.958528 C247.275536,137.752881 246.245789,138.150058 245.095234,138.150058 C244.128768,138.150058 243.173808,137.695319 242.230353,136.785843 C241.286898,135.876367 240.285916,134.558202 239.227405,132.831348 C236.949307,134.604251 234.745994,135.933929 232.617468,136.82038 C230.488942,137.706832 228.101541,138.150058 225.455265,138.150058 C223.0391,138.150058 220.916326,137.672295 219.086944,136.716769 C217.257562,135.761243 215.848132,134.466103 214.858655,132.831348 C213.869178,131.196593 213.37444,129.42369 213.37444,127.512638 C213.37444,124.93387 214.191334,122.735009 215.825121,120.916057 C217.458909,119.097104 219.702491,117.876794 222.555867,117.255126 C223.154155,117.116978 224.638371,116.806144 227.008514,116.322625 C229.378656,115.839106 231.409386,115.395881 233.100701,114.992948 C234.792017,114.590015 236.627151,114.10074 238.606106,113.525122 C238.49105,111.038453 237.990559,109.213744 237.104632,108.050996 C236.218704,106.888247 234.38357,106.306873 231.599227,106.306873 C229.206073,106.306873 227.405455,106.640732 226.197372,107.308449 C224.98929,107.976165 223.953791,108.977741 223.090875,110.313174 C222.227959,111.648608 221.618165,112.529303 221.261493,112.95526 C220.904821,113.381218 220.139702,113.594196 218.966136,113.594196 C217.907625,113.594196 216.992934,113.254582 216.222063,112.575353 C215.451191,111.896123 215.065755,111.02694 215.065755,109.967803 C215.065755,108.310024 215.652538,106.698294 216.826104,105.132613 C217.99967,103.566932 219.829052,102.277548 222.31425,101.26446 C224.799448,100.251373 227.894441,99.7448288 231.599227,99.7448288 Z M355.946078,99.7448288 C358.38222,99.7448288 360.5713,99.9985571 362.513319,100.506014 C364.455338,101.01347 366.075602,101.693923 367.374112,102.547373 C368.672621,103.400822 369.660867,104.346536 370.33885,105.384516 C371.016833,106.422495 371.355825,107.437408 371.355825,108.429254 C371.355825,109.513366 370.993851,110.401415 370.269903,111.093401 C369.545955,111.785387 368.517489,112.13138 367.184506,112.13138 C366.219242,112.13138 365.397619,111.854586 364.719636,111.300997 C364.041653,110.747408 363.265995,109.917025 362.392661,108.809847 C361.680204,107.887199 360.841344,107.14908 359.87608,106.595491 C358.910817,106.041902 357.600816,105.765108 355.946078,105.765108 C354.245375,105.765108 352.831953,106.128401 351.705812,106.854986 C350.579671,107.581571 350.0166,108.48692 350.0166,109.571032 C350.0166,110.562878 350.430285,111.375962 351.257654,112.010283 C352.085023,112.644603 353.199672,113.169359 354.601603,113.584551 C356.003534,113.999743 357.934062,114.507199 360.393186,115.10692 C363.31196,115.821973 365.696391,116.675422 367.54648,117.667269 C369.396569,118.659116 370.7985,119.829725 371.752272,121.179098 C372.706045,122.528471 373.182931,124.06814 373.182931,125.798106 C373.182931,128.404587 372.550913,130.636242 371.286877,132.493071 C370.022841,134.349901 368.155516,135.756939 365.6849,136.714186 C363.214284,137.671434 360.209326,138.150058 356.670026,138.150058 C353.291602,138.150058 350.395811,137.631068 347.982652,136.593089 C345.569492,135.55511 343.788351,134.257636 342.639227,132.700667 C341.490103,131.143698 340.915542,129.580963 340.915542,128.012461 C340.915542,126.974482 341.283261,126.086433 342.0187,125.348315 C342.754139,124.610196 343.684929,124.241137 344.811071,124.241137 C345.799317,124.241137 346.557738,124.483332 347.086335,124.967722 C347.614932,125.452113 348.120546,126.132566 348.603178,127.009081 C349.568442,128.692914 350.723311,129.950022 352.067786,130.780406 C353.41226,131.610789 355.245112,132.025981 357.566342,132.025981 C359.450905,132.025981 360.996476,131.605022 362.203056,130.763106 C363.409635,129.92119 364.012925,128.958176 364.012925,127.874064 C364.012925,126.213297 363.386653,125.002322 362.134108,124.241137 C360.881563,123.479952 358.818887,122.753367 355.946078,122.061381 C352.705549,121.254064 350.068311,120.406381 348.034362,119.518332 C346.000413,118.630283 344.374404,117.459673 343.156333,116.006502 C341.938262,114.553331 341.329226,112.765701 341.329226,110.64361 C341.329226,108.752181 341.892297,106.964551 343.018438,105.280718 C344.144579,103.596885 345.805062,102.253278 347.999888,101.249899 C350.194714,100.246519 352.843444,99.7448288 355.946078,99.7448288 Z M278.271216,99.7448288 C280.759472,99.7448288 282.982775,100.286885 284.941125,101.370996 C286.899475,102.455108 288.362477,103.98901 289.330132,105.972704 C289.952196,107.126014 290.355386,108.371589 290.539701,109.709429 C290.724016,111.047269 290.816174,112.754168 290.816174,114.830126 L290.816174,114.830126 L290.816174,132.406573 L290.81169,132.735566 C290.763857,134.464653 290.333363,135.785093 289.520207,136.696887 C288.65623,137.665667 287.533058,138.150058 286.150694,138.150058 C284.74529,138.150058 283.604839,137.654134 282.729342,136.662287 C281.853844,135.670441 281.416096,134.251869 281.416096,132.406573 L281.416096,132.406573 L281.416096,116.663889 L281.412856,116.202291 C281.371817,113.313624 280.940908,111.085904 280.120129,109.519133 C279.256151,107.869899 277.533955,107.045282 274.953542,107.045282 C273.271665,107.045282 271.739544,107.546972 270.35718,108.550352 C268.974815,109.553732 267.961081,110.931938 267.315978,112.684969 C266.860198,114.076713 266.629831,116.664535 266.624877,120.448433 L266.624877,120.448433 L266.624795,132.406573 L266.620192,132.739457 C266.571083,134.488338 266.129109,135.813248 265.29427,136.714186 C264.407252,137.671434 263.261042,138.150058 261.855638,138.150058 C260.496313,138.150058 259.378902,137.654134 258.503404,136.662287 C257.627907,135.670441 257.190158,134.251869 257.190158,132.406573 L257.190158,132.406573 L257.190158,105.107721 L257.194748,104.775716 C257.240647,103.142386 257.630786,101.909448 258.365168,101.076902 C259.148507,100.188853 260.21984,99.7448288 261.579165,99.7448288 C262.408584,99.7448288 263.157365,99.9408916 263.825507,100.333017 C264.49365,100.725142 265.029316,101.313331 265.432506,102.097582 C265.835696,102.881833 266.037291,103.83908 266.037291,104.969324 L266.037291,104.969324 L266.037291,106.111101 L266.350145,105.707059 C267.92353,103.720978 269.633598,102.246791 271.480351,101.284498 C273.45022,100.258052 275.713842,99.7448288 278.271216,99.7448288 Z M238.509038,119.287312 L238.258565,119.376765 C236.887954,119.855437 234.96119,120.359535 232.478273,120.889061 C229.840173,121.451683 228.014239,121.865037 227.000472,122.129125 C225.986704,122.393213 225.019017,122.909906 224.09741,123.679204 C223.175803,124.448503 222.715,125.522077 222.715,126.899925 C222.715,128.323702 223.256444,129.53506 224.339332,130.534 C225.42222,131.53294 226.839191,132.032411 228.590244,132.032411 C230.456498,132.032411 232.17875,131.624797 233.757002,130.80957 C235.335254,129.994343 236.493023,128.943734 237.230308,127.657742 C238.082794,126.233965 238.509038,123.891623 238.509038,120.630715 L238.509038,120.630715 L238.509038,119.287312 Z M111.196844,117.549908 C111.594819,119.035171 110.755419,120.561664 109.30898,121.043466 L109.139425,121.09436 L91.5881631,125.797207 C90.0385692,126.212419 88.4474423,125.298719 88.0341606,123.756331 C87.6361856,122.271068 88.4755855,120.744575 89.9220242,120.262773 L90.091579,120.211879 L107.642841,115.509032 C109.192435,115.09382 110.783562,116.00752 111.196844,117.549908 Z M131.572659,114.703437 L131.475773,114.859524 L131.077959,115.545787 L136.116449,118.449994 L136.515601,117.761417 C137.316728,116.375686 136.839637,114.595156 135.450556,113.794484 C134.114902,113.024607 132.414992,113.436721 131.572659,114.703437 Z M514.887376,106.202345 C512.53105,106.202345 510.596322,107.018214 509.083191,108.649952 C507.57006,110.28169 506.651786,112.694579 506.328369,115.88862 L506.328369,115.88862 L523.481034,115.88862 C523.250022,112.648289 522.37795,110.223827 520.86482,108.615234 C519.351689,107.006642 517.359208,106.202345 514.887376,106.202345 Z M119.500384,103.276117 C119.898358,104.761379 119.059385,106.287758 117.613484,106.769416 L117.443992,106.820293 L88.5557461,114.560875 C87.0067191,114.975936 85.4160517,114.062112 85.00277,112.519724 C84.604795,111.034461 85.4437687,109.508083 86.8896696,109.026425 L87.059162,108.975547 L115.947407,101.234965 C117.496434,100.819905 119.087102,101.733728 119.500384,103.276117 Z M116.439136,92.0515413 C116.837111,93.5368041 115.998137,95.0631829 114.552236,95.5448403 L114.382744,95.595718 L85.4944983,103.3363 C83.9454713,103.751361 82.3548039,102.837537 81.9415222,101.295149 C81.5435472,99.8098861 82.3825209,98.2835073 83.8284218,97.8018499 L83.9979142,97.7509722 L112.88616,90.0103901 C114.435187,89.5953296 116.025854,90.509153 116.439136,92.0515413 Z M458.99851,86.1500576 C460.229403,86.1500576 461.320949,86.5395707 462.273149,87.3185969 C463.22535,88.0976231 463.70145,89.2317937 463.70145,90.7211085 C463.70145,92.1645982 463.236962,93.2930406 462.307986,94.1064357 C461.37901,94.9198307 460.275852,95.3265282 458.99851,95.3265282 C457.67472,95.3265282 456.542531,94.9255588 455.601943,94.1236201 C454.661355,93.3216813 454.191061,92.1875108 454.191061,90.7211085 C454.191061,89.3921814 454.672967,88.2981078 455.63678,87.4388877 C456.600592,86.5796676 457.721169,86.1500576 458.99851,86.1500576 Z" id="Combined-Shape" fill="#F8FAFC" fill-rule="nonzero"></path>
            <path d="M1150,119 L1150,117.093941 L1141.32131,117.093941 L1141.32131,103 L1139,103 L1139,119 L1150,119 Z M1154.67029,120 C1155.56795,120 1156.3896,119.797293 1157.13524,119.39188 C1157.88088,118.986467 1158.45278,118.508385 1158.85094,117.957635 C1158.91609,118.44719 1159.0283,118.825831 1159.18756,119.093557 C1159.49161,119.598411 1159.98026,119.850838 1160.6535,119.850838 C1160.92859,119.850838 1161.14577,119.839365 1161.30503,119.816417 C1161.4643,119.793469 1161.69595,119.736099 1162,119.644307 L1162,119.644307 L1162,118.11827 C1161.87693,118.141218 1161.76111,118.158429 1161.65252,118.169903 C1161.54393,118.181377 1161.4462,118.187114 1161.35933,118.187114 C1161.09148,118.187114 1160.91593,118.122095 1160.83268,117.992056 C1160.74942,117.862018 1160.7078,117.689909 1160.7078,117.475728 L1160.7078,117.475728 L1160.7078,110.396293 C1160.7078,109.233598 1160.2843,108.376876 1159.43731,107.826125 C1158.58309,107.275375 1157.47187,107 1156.10365,107 C1154.92366,107 1153.88664,107.296411 1152.9926,107.889232 C1152.09855,108.482054 1151.63343,109.535746 1151.59724,111.050309 L1151.59724,111.050309 L1153.42152,111.050309 C1153.49391,110.415416 1153.64956,109.937335 1153.88845,109.616064 C1154.31556,109.034716 1155.03949,108.744042 1156.06022,108.744042 C1156.9434,108.744042 1157.62208,108.902766 1158.09625,109.220212 C1158.57042,109.537658 1158.8075,110.048249 1158.8075,110.751986 C1158.8075,111.096205 1158.76407,111.360106 1158.6772,111.543689 C1158.52517,111.880259 1158.22474,112.079141 1157.77591,112.140335 L1157.77591,112.140335 L1154.65943,112.553398 C1153.5663,112.698735 1152.68312,113.085025 1152.00987,113.712268 C1151.33662,114.339512 1151,115.223007 1151,116.362754 C1151,117.40306 1151.34205,118.269344 1152.02616,118.961606 C1152.71027,119.653869 1153.59164,120 1154.67029,120 Z M1155.19011,118 C1154.59696,118 1154.08365,117.824766 1153.65019,117.474299 C1153.21673,117.123832 1153,116.64486 1153,116.037383 C1153,115.235202 1153.31559,114.65109 1153.94677,114.285047 C1154.31939,114.066978 1154.87833,113.907321 1155.62357,113.806075 L1155.62357,113.806075 L1156.86692,113.642523 C1157.24715,113.595794 1157.63498,113.517913 1158.03042,113.408879 C1158.42586,113.299844 1158.74905,113.163551 1159,113 L1159,113 L1159,114.693925 C1159,115.98676 1158.42966,116.917445 1157.28897,117.485981 C1156.61217,117.82866 1155.91255,118 1155.19011,118 Z M1166.07294,119 L1166.07294,112.249315 C1166.07294,111.416438 1166.35317,110.680365 1166.91363,110.041096 C1167.47409,109.401826 1168.27639,109.082192 1169.32054,109.082192 C1169.44338,109.082192 1169.55662,109.085845 1169.66027,109.093151 C1169.76392,109.100457 1169.87716,109.115068 1170,109.136986 L1170,109.136986 L1170,107.054795 C1169.77735,107.032877 1169.61996,107.018265 1169.52783,107.010959 C1169.4357,107.003653 1169.37044,107 1169.33205,107 C1168.51056,107 1167.78503,107.283105 1167.15547,107.849315 C1166.52591,108.415525 1166.13052,108.89589 1165.96929,109.290411 L1165.96929,109.290411 L1165.96929,107.263014 L1164,107.263014 L1164,119 L1166.07294,119 Z M1175.67029,120 C1176.56795,120 1177.3896,119.797293 1178.13524,119.39188 C1178.88088,118.986467 1179.45278,118.508385 1179.85094,117.957635 C1179.91609,118.44719 1180.0283,118.825831 1180.18756,119.093557 C1180.49161,119.598411 1180.98026,119.850838 1181.6535,119.850838 C1181.92859,119.850838 1182.14577,119.839365 1182.30503,119.816417 C1182.4643,119.793469 1182.69595,119.736099 1183,119.644307 L1183,119.644307 L1183,118.11827 C1182.87693,118.141218 1182.76111,118.158429 1182.65252,118.169903 C1182.54393,118.181377 1182.4462,118.187114 1182.35933,118.187114 C1182.09148,118.187114 1181.91593,118.122095 1181.83268,117.992056 C1181.74942,117.862018 1181.7078,117.689909 1181.7078,117.475728 L1181.7078,117.475728 L1181.7078,110.396293 C1181.7078,109.233598 1181.2843,108.376876 1180.43731,107.826125 C1179.58309,107.275375 1178.47187,107 1177.10365,107 C1175.92366,107 1174.88664,107.296411 1173.9926,107.889232 C1173.09855,108.482054 1172.63343,109.535746 1172.59724,111.050309 L1172.59724,111.050309 L1174.42152,111.050309 C1174.49391,110.415416 1174.64956,109.937335 1174.88845,109.616064 C1175.31556,109.034716 1176.03949,108.744042 1177.06022,108.744042 C1177.9434,108.744042 1178.62208,108.902766 1179.09625,109.220212 C1179.57042,109.537658 1179.8075,110.048249 1179.8075,110.751986 C1179.8075,111.096205 1179.76407,111.360106 1179.6772,111.543689 C1179.52517,111.880259 1179.22474,112.079141 1178.77591,112.140335 L1178.77591,112.140335 L1175.65943,112.553398 C1174.5663,112.698735 1173.68312,113.085025 1173.00987,113.712268 C1172.33662,114.339512 1172,115.223007 1172,116.362754 C1172,117.40306 1172.34205,118.269344 1173.02616,118.961606 C1173.71027,119.653869 1174.59164,120 1175.67029,120 Z M1176.19011,118 C1175.59696,118 1175.08365,117.824766 1174.65019,117.474299 C1174.21673,117.123832 1174,116.64486 1174,116.037383 C1174,115.235202 1174.31559,114.65109 1174.94677,114.285047 C1175.31939,114.066978 1175.87833,113.907321 1176.62357,113.806075 L1176.62357,113.806075 L1177.86692,113.642523 C1178.24715,113.595794 1178.63498,113.517913 1179.03042,113.408879 C1179.42586,113.299844 1179.74905,113.163551 1180,113 L1180,113 L1180,114.693925 C1180,115.98676 1179.42966,116.917445 1178.28897,117.485981 C1177.61217,117.82866 1176.91255,118 1176.19011,118 Z M1190.51564,120 L1195,108 L1192.81332,108 L1189.49445,117.770308 L1186.31988,108 L1184,108 L1188.38446,120 L1190.51564,120 Z M1201.37628,120 C1201.99114,120 1202.54226,119.938806 1203.02965,119.816417 C1203.93695,119.602236 1204.69802,119.189173 1205.31288,118.577229 C1205.6803,118.22536 1206.0121,117.772139 1206.30828,117.217564 C1206.60446,116.662989 1206.7788,116.160047 1206.83129,115.708738 L1206.83129,115.708738 L1204.84049,115.708738 C1204.69052,116.251839 1204.43558,116.729921 1204.07566,117.142983 C1203.44581,117.854369 1202.60225,118.210062 1201.54499,118.210062 C1200.41275,118.210062 1199.57669,117.833333 1199.03681,117.079876 C1198.49693,116.32642 1198.20825,115.326272 1198.17076,114.079435 L1198.17076,114.079435 L1207,114.079435 C1207,112.840247 1206.94001,111.937629 1206.82004,111.37158 C1206.68507,110.545455 1206.41513,109.822595 1206.01022,109.203001 C1205.59032,108.55281 1204.97921,108.023095 1204.17689,107.613857 C1203.37457,107.204619 1202.54601,107 1201.69121,107 C1199.99659,107 1198.6244,107.615769 1197.57464,108.847308 C1196.52488,110.078847 1196,111.681377 1196,113.654898 C1196,115.659017 1196.52113,117.217564 1197.56339,118.330538 C1198.60566,119.443513 1199.87662,120 1201.37628,120 Z M1205,112 L1198,112 C1198.03922,111.129338 1198.38824,110.411672 1199.04706,109.847003 C1199.70588,109.282334 1200.52157,109 1201.49412,109 C1202.85098,109 1203.81961,109.410095 1204.4,110.230284 C1204.71373,110.671924 1204.91373,111.26183 1205,112 L1205,112 Z M1212,119 L1212,103 L1210,103 L1210,119 L1212,119 Z M1223.09968,124 L1223.09968,117.898294 C1223.5585,118.441164 1223.97455,118.824147 1224.34783,119.047244 C1224.98551,119.441382 1225.77483,119.638451 1226.7158,119.638451 C1227.9134,119.638451 1228.96324,119.285214 1229.86532,118.57874 C1231.28844,117.463255 1232,115.604112 1232,113.001312 C1232,111.075241 1231.50619,109.593504 1230.51856,108.556102 C1229.53093,107.518701 1228.32945,107 1226.9141,107 C1225.95758,107 1225.12549,107.223097 1224.41782,107.669291 C1223.92011,107.966754 1223.46129,108.38692 1223.04136,108.92979 L1223.04136,108.92979 L1223.04136,107.345801 L1221,107.345801 L1221,124 L1223.09968,124 Z M1226.5,118 C1225.01877,118 1223.99943,117.391198 1223.44198,116.173594 C1223.14733,115.535452 1223,114.761614 1223,113.852078 C1223,112.722494 1223.14733,111.790954 1223.44198,111.057457 C1223.99147,109.685819 1225.01081,109 1226.5,109 C1227.98123,109 1229.00057,109.649144 1229.55802,110.947433 C1229.85267,111.622249 1230,112.429095 1230,113.367971 C1230,114.908313 1229.66752,116.065403 1229.00256,116.839242 C1228.3376,117.613081 1227.50341,118 1226.5,118 Z M1239.3016,120 C1241.24883,120 1242.68537,119.358165 1243.61122,118.074496 C1244.53707,116.790827 1245,115.165352 1245,113.198072 C1245,111.162431 1244.47462,109.620508 1243.42385,108.572305 C1242.37308,107.524102 1241.08717,107 1239.56613,107 C1237.86874,107 1236.5167,107.607654 1235.51002,108.822962 C1234.50334,110.038271 1234,111.671341 1234,113.722174 C1234,115.636284 1234.47762,117.161116 1235.43287,118.29667 C1236.38811,119.432223 1237.67769,120 1239.3016,120 Z M1239.5056,119 C1238.28853,119 1237.4,118.541616 1236.84,117.624849 C1236.28,116.708082 1236,115.562123 1236,114.186972 C1236,112.755529 1236.28,111.533172 1236.84,110.519903 C1237.4,109.506634 1238.296,109 1239.528,109 C1240.9168,109 1241.89493,109.595094 1242.4624,110.785283 C1242.8208,111.541214 1243,112.522316 1243,113.728589 C1243,115.06353 1242.75173,116.275834 1242.2552,117.365501 C1241.75867,118.455167 1240.84213,119 1239.5056,119 Z M1251.57695,120 L1253.9494,110.711485 L1256.40056,120 L1258.50316,120 L1262,108 L1259.97611,108 L1257.5137,117.40056 L1255.15249,108 L1252.88124,108 L1250.53127,117.456583 L1248.21504,108 L1246,108 L1249.47435,120 L1251.57695,120 Z M1268.37628,120 C1268.99114,120 1269.54226,119.938806 1270.02965,119.816417 C1270.93695,119.602236 1271.69802,119.189173 1272.31288,118.577229 C1272.6803,118.22536 1273.0121,117.772139 1273.30828,117.217564 C1273.60446,116.662989 1273.7788,116.160047 1273.83129,115.708738 L1273.83129,115.708738 L1271.84049,115.708738 C1271.69052,116.251839 1271.43558,116.729921 1271.07566,117.142983 C1270.44581,117.854369 1269.60225,118.210062 1268.54499,118.210062 C1267.41275,118.210062 1266.57669,117.833333 1266.03681,117.079876 C1265.49693,116.32642 1265.20825,115.326272 1265.17076,114.079435 L1265.17076,114.079435 L1274,114.079435 C1274,112.840247 1273.94001,111.937629 1273.82004,111.37158 C1273.68507,110.545455 1273.41513,109.822595 1273.01022,109.203001 C1272.59032,108.55281 1271.97921,108.023095 1271.17689,107.613857 C1270.37457,107.204619 1269.54601,107 1268.69121,107 C1266.99659,107 1265.6244,107.615769 1264.57464,108.847308 C1263.52488,110.078847 1263,111.681377 1263,113.654898 C1263,115.659017 1263.52113,117.217564 1264.56339,118.330538 C1265.60566,119.443513 1266.87662,120 1268.37628,120 Z M1272,112 L1265,112 C1265.03922,111.129338 1265.38824,110.411672 1266.04706,109.847003 C1266.70588,109.282334 1267.52157,109 1268.49412,109 C1269.85098,109 1270.81961,109.410095 1271.4,110.230284 C1271.71373,110.671924 1271.91373,111.26183 1272,112 L1272,112 Z M1279.07294,119 L1279.07294,112.249315 C1279.07294,111.416438 1279.35317,110.680365 1279.91363,110.041096 C1280.47409,109.401826 1281.27639,109.082192 1282.32054,109.082192 C1282.44338,109.082192 1282.55662,109.085845 1282.66027,109.093151 C1282.76392,109.100457 1282.87716,109.115068 1283,109.136986 L1283,109.136986 L1283,107.054795 C1282.77735,107.032877 1282.61996,107.018265 1282.52783,107.010959 C1282.4357,107.003653 1282.37044,107 1282.33205,107 C1281.51056,107 1280.78503,107.283105 1280.15547,107.849315 C1279.52591,108.415525 1279.13052,108.89589 1278.96929,109.290411 L1278.96929,109.290411 L1278.96929,107.263014 L1277,107.263014 L1277,119 L1279.07294,119 Z M1289.37628,120 C1289.99114,120 1290.54226,119.938806 1291.02965,119.816417 C1291.93695,119.602236 1292.69802,119.189173 1293.31288,118.577229 C1293.6803,118.22536 1294.0121,117.772139 1294.30828,117.217564 C1294.60446,116.662989 1294.7788,116.160047 1294.83129,115.708738 L1294.83129,115.708738 L1292.84049,115.708738 C1292.69052,116.251839 1292.43558,116.729921 1292.07566,117.142983 C1291.44581,117.854369 1290.60225,118.210062 1289.54499,118.210062 C1288.41275,118.210062 1287.57669,117.833333 1287.03681,117.079876 C1286.49693,116.32642 1286.20825,115.326272 1286.17076,114.079435 L1286.17076,114.079435 L1295,114.079435 C1295,112.840247 1294.94001,111.937629 1294.82004,111.37158 C1294.68507,110.545455 1294.41513,109.822595 1294.01022,109.203001 C1293.59032,108.55281 1292.97921,108.023095 1292.17689,107.613857 C1291.37457,107.204619 1290.54601,107 1289.69121,107 C1287.99659,107 1286.6244,107.615769 1285.57464,108.847308 C1284.52488,110.078847 1284,111.681377 1284,113.654898 C1284,115.659017 1284.52113,117.217564 1285.56339,118.330538 C1286.60566,119.443513 1287.87662,120 1289.37628,120 Z M1293,112 L1286,112 C1286.03922,111.129338 1286.38824,110.411672 1287.04706,109.847003 C1287.70588,109.282334 1288.52157,109 1289.49412,109 C1290.85098,109 1291.81961,109.410095 1292.4,110.230284 C1292.71373,110.671924 1292.91373,111.26183 1293,112 L1293,112 Z M1301.1117,120 C1301.96944,120 1302.73059,119.835097 1303.39515,119.505291 C1304.05971,119.175485 1304.63541,118.63955 1305.12223,117.897487 L1305.12223,117.897487 L1305.12223,119.572751 L1307,119.572751 L1307,103 L1304.99473,103 L1304.99473,109.082672 C1304.52336,108.520503 1304.10221,108.126984 1303.7313,107.902116 C1303.08992,107.512346 1302.29399,107.31746 1301.34352,107.31746 C1299.62803,107.31746 1298.30857,107.960207 1297.38514,109.245701 C1296.46171,110.531195 1296,112.050926 1296,113.804894 C1296,115.678792 1296.50615,117.179784 1297.51844,118.30787 C1298.53073,119.435957 1299.72849,120 1301.1117,120 Z M1302.62395,118 C1301.35694,118 1300.4362,117.572482 1299.86172,116.717445 C1299.28724,115.862408 1299,114.800983 1299,113.53317 C1299,112.044226 1299.33249,110.916462 1299.99747,110.149877 C1300.66245,109.383292 1301.53007,109 1302.60034,109 C1303.56043,109 1304.36706,109.359337 1305.02024,110.07801 C1305.67341,110.796683 1306,111.904177 1306,113.400491 C1306,114.882064 1305.68325,116.019042 1305.04975,116.811425 C1304.41625,117.603808 1303.60764,118 1302.62395,118 Z M1321.1117,120 C1321.96944,120 1322.73059,119.835097 1323.39515,119.505291 C1324.05971,119.175485 1324.63541,118.63955 1325.12223,117.897487 L1325.12223,117.897487 L1325.12223,119.572751 L1327,119.572751 L1327,103 L1324.99473,103 L1324.99473,109.082672 C1324.52336,108.520503 1324.10221,108.126984 1323.7313,107.902116 C1323.08992,107.512346 1322.29399,107.31746 1321.34352,107.31746 C1319.62803,107.31746 1318.30857,107.960207 1317.38514,109.245701 C1316.46171,110.531195 1316,112.050926 1316,113.804894 C1316,115.678792 1316.50615,117.179784 1317.51844,118.30787 C1318.53073,119.435957 1319.72849,120 1321.1117,120 Z M1321.62395,118 C1320.35694,118 1319.4362,117.572482 1318.86172,116.717445 C1318.28724,115.862408 1318,114.800983 1318,113.53317 C1318,112.044226 1318.33249,110.916462 1318.99747,110.149877 C1319.66245,109.383292 1320.53007,109 1321.60034,109 C1322.56043,109 1323.36706,109.359337 1324.02024,110.07801 C1324.67341,110.796683 1325,111.904177 1325,113.400491 C1325,114.882064 1324.68325,116.019042 1324.04975,116.811425 C1323.41625,117.603808 1322.60764,118 1321.62395,118 Z M1334.3016,120 C1336.24883,120 1337.68537,119.358165 1338.61122,118.074496 C1339.53707,116.790827 1340,115.165352 1340,113.198072 C1340,111.162431 1339.47462,109.620508 1338.42385,108.572305 C1337.37308,107.524102 1336.08717,107 1334.56613,107 C1332.86874,107 1331.5167,107.607654 1330.51002,108.822962 C1329.50334,110.038271 1329,111.671341 1329,113.722174 C1329,115.636284 1329.47762,117.161116 1330.43287,118.29667 C1331.38811,119.432223 1332.67769,120 1334.3016,120 Z M1334.5056,119 C1333.28853,119 1332.4,118.541616 1331.84,117.624849 C1331.28,116.708082 1331,115.562123 1331,114.186972 C1331,112.755529 1331.28,111.533172 1331.84,110.519903 C1332.4,109.506634 1333.296,109 1334.528,109 C1335.9168,109 1336.89493,109.595094 1337.4624,110.785283 C1337.8208,111.541214 1338,112.522316 1338,113.728589 C1338,115.06353 1337.75173,116.275834 1337.2552,117.365501 C1336.75867,118.455167 1335.84213,119 1334.5056,119 Z M1347.01636,120 C1348.37586,120 1349.49182,119.623272 1350.36423,118.869815 C1351.23664,118.116358 1351.7819,116.924978 1352,115.295675 L1352,115.295675 L1350.0916,115.295675 C1349.90985,116.205943 1349.58088,116.923066 1349.10469,117.447043 C1348.6285,117.971021 1347.98328,118.23301 1347.16903,118.23301 C1346.1076,118.23301 1345.3297,117.812298 1344.83533,116.970874 C1344.34097,116.12945 1344.09378,115.092969 1344.09378,113.86143 C1344.09378,112.63754 1344.26827,111.608708 1344.61723,110.774934 C1345.15522,109.48985 1346.04944,108.847308 1347.29989,108.847308 C1348.21592,108.847308 1348.88113,109.097823 1349.29553,109.598853 C1349.70992,110.099882 1349.97528,110.729038 1350.0916,111.48632 L1350.0916,111.48632 L1352,111.48632 C1351.83279,109.841718 1351.3366,108.682848 1350.51145,108.009709 C1349.6863,107.33657 1348.61578,107 1347.29989,107 C1345.75863,107 1344.49,107.600471 1343.494,108.801412 C1342.498,110.002354 1342,111.681377 1342,113.838482 C1342,115.597823 1342.45438,117.064578 1343.36314,118.238747 C1344.2719,119.412916 1345.48964,120 1347.01636,120 Z M1358.14153,120 C1359.27842,120 1360.24517,119.694545 1361.04176,119.083636 C1361.44393,118.778182 1361.78036,118.403636 1362.05104,117.96 L1362.05104,117.96 L1362.02784,119.683636 L1364,119.683636 L1364,108 L1361.91183,108 L1361.91183,113.738182 C1361.91183,114.88 1361.76875,115.778182 1361.4826,116.432727 C1360.95669,117.654545 1359.96674,118.265455 1358.51276,118.265455 C1357.49961,118.265455 1356.80742,117.916364 1356.43619,117.218182 C1356.23511,116.84 1356.13457,116.352727 1356.13457,115.756364 L1356.13457,115.756364 L1356.13457,108 L1354,108 L1354,115.941818 C1354,116.938182 1354.17401,117.734545 1354.52204,118.330909 C1355.16396,119.443636 1356.37046,120 1358.14153,120 Z M1368.99861,119 L1368.99861,112.775342 C1368.99861,111.263014 1369.30766,110.218265 1369.92575,109.641096 C1370.54384,109.063927 1371.2304,108.775342 1371.98543,108.775342 C1372.81448,108.775342 1373.38075,109.049315 1373.68425,109.59726 C1373.87671,109.962557 1373.97294,110.543379 1373.97294,111.339726 L1373.97294,111.339726 L1373.97294,119 L1376.00486,119 L1376.00486,112.172603 C1376.00486,110.959817 1376.28799,110.094064 1376.85427,109.575342 C1377.42054,109.056621 1378.096,108.79726 1378.88064,108.79726 C1379.45061,108.79726 1379.93361,108.943379 1380.32963,109.235616 C1380.72565,109.527854 1380.92366,110.06484 1380.92366,110.846575 L1380.92366,110.846575 L1380.92366,119 L1383,119 L1383,111.186301 C1383,110.148858 1382.84455,109.323288 1382.53366,108.709589 C1381.95628,107.569863 1380.86815,107 1379.26926,107 C1378.52163,107 1377.84802,107.151598 1377.24844,107.454795 C1376.64885,107.757991 1376.127,108.223744 1375.68286,108.852055 C1375.41638,108.340639 1375.12029,107.953425 1374.79459,107.690411 C1374.21721,107.230137 1373.45478,107 1372.50729,107 C1371.67083,107 1370.9232,107.222831 1370.2644,107.668493 C1369.87948,107.931507 1369.45015,108.351598 1368.97641,108.928767 L1368.97641,108.928767 L1368.97641,107.263014 L1367,107.263014 L1367,119 L1368.99861,119 Z M1391.37628,120 C1391.99114,120 1392.54226,119.938806 1393.02965,119.816417 C1393.93695,119.602236 1394.69802,119.189173 1395.31288,118.577229 C1395.6803,118.22536 1396.0121,117.772139 1396.30828,117.217564 C1396.60446,116.662989 1396.7788,116.160047 1396.83129,115.708738 L1396.83129,115.708738 L1394.84049,115.708738 C1394.69052,116.251839 1394.43558,116.729921 1394.07566,117.142983 C1393.44581,117.854369 1392.60225,118.210062 1391.54499,118.210062 C1390.41275,118.210062 1389.57669,117.833333 1389.03681,117.079876 C1388.49693,116.32642 1388.20825,115.326272 1388.17076,114.079435 L1388.17076,114.079435 L1397,114.079435 C1397,112.840247 1396.94001,111.937629 1396.82004,111.37158 C1396.68507,110.545455 1396.41513,109.822595 1396.01022,109.203001 C1395.59032,108.55281 1394.97921,108.023095 1394.17689,107.613857 C1393.37457,107.204619 1392.54601,107 1391.69121,107 C1389.99659,107 1388.6244,107.615769 1387.57464,108.847308 C1386.52488,110.078847 1386,111.681377 1386,113.654898 C1386,115.659017 1386.52113,117.217564 1387.56339,118.330538 C1388.60566,119.443513 1389.87662,120 1391.37628,120 Z M1395,112 L1388,112 C1388.03922,111.129338 1388.38824,110.411672 1389.04706,109.847003 C1389.70588,109.282334 1390.52157,109 1391.49412,109 C1392.85098,109 1393.81961,109.410095 1394.4,110.230284 C1394.71373,110.671924 1394.91373,111.26183 1395,112 L1395,112 Z M1402.06186,119 L1402.06186,112.852055 C1402.06186,112.084932 1402.1134,111.494977 1402.21649,111.082192 C1402.31959,110.669406 1402.54296,110.269406 1402.8866,109.882192 C1403.31424,109.4 1403.81061,109.078539 1404.37572,108.917808 C1404.68881,108.822831 1405.08973,108.775342 1405.57847,108.775342 C1406.54066,108.775342 1407.20504,109.140639 1407.57159,109.871233 C1407.79305,110.309589 1407.90378,110.886758 1407.90378,111.60274 L1407.90378,111.60274 L1407.90378,119 L1410,119 L1410,111.471233 C1410,110.287671 1409.832,109.378082 1409.49599,108.742466 C1408.88507,107.580822 1407.70905,107 1405.96793,107 C1405.17373,107 1404.45208,107.149772 1403.80298,107.449315 C1403.15388,107.748858 1402.53914,108.242009 1401.95876,108.928767 L1401.95876,108.928767 L1401.95876,107.263014 L1400,107.263014 L1400,119 L1402.06186,119 Z M1415.3494,120 C1415.66265,120 1415.95382,119.984619 1416.22289,119.953857 C1416.49197,119.923095 1416.751,119.873107 1417,119.803893 L1417,119.803893 L1417,118.165826 C1416.83936,118.181206 1416.6988,118.19082 1416.57831,118.194665 C1416.45783,118.19851 1416.34538,118.200433 1416.24096,118.200433 C1415.84739,118.200433 1415.56627,118.158135 1415.39759,118.07354 C1415.09237,117.927421 1414.93976,117.639029 1414.93976,117.208363 L1414.93976,117.208363 L1414.93976,109.144917 L1417,109.144917 L1417,107.449171 L1414.93976,107.449171 L1414.93976,104 L1412.74699,104 L1412.74699,107.449171 L1411,107.449171 L1411,109.144917 L1412.74699,109.144917 L1412.74699,117.32372 C1412.74699,118.115838 1412.92771,118.759913 1413.28916,119.255948 C1413.6506,119.751983 1414.33735,120 1415.3494,120 Z M1422.67029,120 C1423.56795,120 1424.3896,119.797293 1425.13524,119.39188 C1425.88088,118.986467 1426.45278,118.508385 1426.85094,117.957635 C1426.91609,118.44719 1427.0283,118.825831 1427.18756,119.093557 C1427.49161,119.598411 1427.98026,119.850838 1428.6535,119.850838 C1428.92859,119.850838 1429.14577,119.839365 1429.30503,119.816417 C1429.4643,119.793469 1429.69595,119.736099 1430,119.644307 L1430,119.644307 L1430,118.11827 C1429.87693,118.141218 1429.76111,118.158429 1429.65252,118.169903 C1429.54393,118.181377 1429.4462,118.187114 1429.35933,118.187114 C1429.09148,118.187114 1428.91593,118.122095 1428.83268,117.992056 C1428.74942,117.862018 1428.7078,117.689909 1428.7078,117.475728 L1428.7078,117.475728 L1428.7078,110.396293 C1428.7078,109.233598 1428.2843,108.376876 1427.43731,107.826125 C1426.58309,107.275375 1425.47187,107 1424.10365,107 C1422.92366,107 1421.88664,107.296411 1420.9926,107.889232 C1420.09855,108.482054 1419.63343,109.535746 1419.59724,111.050309 L1419.59724,111.050309 L1421.42152,111.050309 C1421.49391,110.415416 1421.64956,109.937335 1421.88845,109.616064 C1422.31556,109.034716 1423.03949,108.744042 1424.06022,108.744042 C1424.9434,108.744042 1425.62208,108.902766 1426.09625,109.220212 C1426.57042,109.537658 1426.8075,110.048249 1426.8075,110.751986 C1426.8075,111.096205 1426.76407,111.360106 1426.6772,111.543689 C1426.52517,111.880259 1426.22474,112.079141 1425.77591,112.140335 L1425.77591,112.140335 L1422.65943,112.553398 C1421.5663,112.698735 1420.68312,113.085025 1420.00987,113.712268 C1419.33662,114.339512 1419,115.223007 1419,116.362754 C1419,117.40306 1419.34205,118.269344 1420.02616,118.961606 C1420.71027,119.653869 1421.59164,120 1422.67029,120 Z M1422.19011,118 C1421.59696,118 1421.08365,117.824766 1420.65019,117.474299 C1420.21673,117.123832 1420,116.64486 1420,116.037383 C1420,115.235202 1420.31559,114.65109 1420.94677,114.285047 C1421.31939,114.066978 1421.87833,113.907321 1422.62357,113.806075 L1422.62357,113.806075 L1423.86692,113.642523 C1424.24715,113.595794 1424.63498,113.517913 1425.03042,113.408879 C1425.42586,113.299844 1425.74905,113.163551 1426,113 L1426,113 L1426,114.693925 C1426,115.98676 1425.42966,116.917445 1424.28897,117.485981 C1423.61217,117.82866 1422.91255,118 1422.19011,118 Z M1434.3494,120 C1434.66265,120 1434.95382,119.984619 1435.22289,119.953857 C1435.49197,119.923095 1435.751,119.873107 1436,119.803893 L1436,119.803893 L1436,118.165826 C1435.83936,118.181206 1435.6988,118.19082 1435.57831,118.194665 C1435.45783,118.19851 1435.34538,118.200433 1435.24096,118.200433 C1434.84739,118.200433 1434.56627,118.158135 1434.39759,118.07354 C1434.09237,117.927421 1433.93976,117.639029 1433.93976,117.208363 L1433.93976,117.208363 L1433.93976,109.144917 L1436,109.144917 L1436,107.449171 L1433.93976,107.449171 L1433.93976,104 L1431.74699,104 L1431.74699,107.449171 L1430,107.449171 L1430,109.144917 L1431.74699,109.144917 L1431.74699,117.32372 C1431.74699,118.115838 1431.92771,118.759913 1432.28916,119.255948 C1432.6506,119.751983 1433.33735,120 1434.3494,120 Z M1440,105 L1440,103 L1438,103 L1438,105 L1440,105 Z M1440,120 L1440,108 L1438,108 L1438,120 L1440,120 Z M1448.3016,120 C1450.24883,120 1451.68537,119.358165 1452.61122,118.074496 C1453.53707,116.790827 1454,115.165352 1454,113.198072 C1454,111.162431 1453.47462,109.620508 1452.42385,108.572305 C1451.37308,107.524102 1450.08717,107 1448.56613,107 C1446.86874,107 1445.5167,107.607654 1444.51002,108.822962 C1443.50334,110.038271 1443,111.671341 1443,113.722174 C1443,115.636284 1443.47762,117.161116 1444.43287,118.29667 C1445.38811,119.432223 1446.67769,120 1448.3016,120 Z M1448.5056,119 C1447.28853,119 1446.4,118.541616 1445.84,117.624849 C1445.28,116.708082 1445,115.562123 1445,114.186972 C1445,112.755529 1445.28,111.533172 1445.84,110.519903 C1446.4,109.506634 1447.296,109 1448.528,109 C1449.9168,109 1450.89493,109.595094 1451.4624,110.785283 C1451.8208,111.541214 1452,112.522316 1452,113.728589 C1452,115.06353 1451.75173,116.275834 1451.2552,117.365501 C1450.75867,118.455167 1449.84213,119 1448.5056,119 Z M1458.06186,119 L1458.06186,112.852055 C1458.06186,112.084932 1458.1134,111.494977 1458.21649,111.082192 C1458.31959,110.669406 1458.54296,110.269406 1458.8866,109.882192 C1459.31424,109.4 1459.81061,109.078539 1460.37572,108.917808 C1460.68881,108.822831 1461.08973,108.775342 1461.57847,108.775342 C1462.54066,108.775342 1463.20504,109.140639 1463.57159,109.871233 C1463.79305,110.309589 1463.90378,110.886758 1463.90378,111.60274 L1463.90378,111.60274 L1463.90378,119 L1466,119 L1466,111.471233 C1466,110.287671 1465.832,109.378082 1465.49599,108.742466 C1464.88507,107.580822 1463.70905,107 1461.96793,107 C1461.17373,107 1460.45208,107.149772 1459.80298,107.449315 C1459.15388,107.748858 1458.53914,108.242009 1457.95876,108.928767 L1457.95876,108.928767 L1457.95876,107.263014 L1456,107.263014 L1456,119 L1458.06186,119 Z M1480.03394,120 C1481.70814,120 1482.95437,119.604678 1483.77262,118.814035 C1484.59087,118.023392 1485,117.084503 1485,115.997368 C1485,114.872222 1484.60407,114.047368 1483.81222,113.522807 C1483.31448,113.188304 1482.33409,112.842398 1480.87104,112.485088 L1480.87104,112.485088 L1479.52489,112.154386 C1478.93665,112.009942 1478.4917,111.84269 1478.19005,111.652632 C1477.66968,111.333333 1477.4095,110.907602 1477.4095,110.375439 C1477.4095,109.888889 1477.60747,109.497368 1478.00339,109.200877 C1478.39932,108.904386 1478.9819,108.75614 1479.75113,108.75614 C1480.90498,108.75614 1481.71569,109.026023 1482.18326,109.565789 C1482.46983,109.945906 1482.63198,110.367836 1482.66968,110.831579 L1482.66968,110.831579 L1484.59276,110.831579 C1484.60784,110.040936 1484.36275,109.303509 1483.85747,108.619298 C1483.05053,107.539766 1481.73454,107 1479.9095,107 C1478.51433,107 1477.40385,107.35731 1476.57805,108.07193 C1475.75226,108.78655 1475.33937,109.721637 1475.33937,110.877193 C1475.33937,111.857895 1475.77677,112.625731 1476.65158,113.180702 C1477.14178,113.5 1477.90347,113.788889 1478.93665,114.047368 L1478.93665,114.047368 L1480.5543,114.457895 C1481.42157,114.678363 1482.00226,114.872222 1482.29638,115.039474 C1482.75641,115.313158 1482.98643,115.712281 1482.98643,116.236842 C1482.98643,116.928655 1482.69985,117.439912 1482.1267,117.770614 C1481.55354,118.101316 1480.88989,118.266667 1480.13575,118.266667 C1478.86878,118.266667 1477.97888,117.935965 1477.46606,117.274561 C1477.18703,116.909649 1477.01735,116.385088 1476.95701,115.700877 L1476.95701,115.700877 L1475,115.700877 C1475.05279,116.917251 1475.45437,117.937865 1476.20475,118.762719 C1476.95513,119.587573 1478.23152,120 1480.03394,120 Z M1489,105 L1489,103 L1487,103 L1487,105 L1489,105 Z M1489,120 L1489,108 L1487,108 L1487,120 L1489,120 Z M1495.3494,120 C1495.66265,120 1495.95382,119.984619 1496.22289,119.953857 C1496.49197,119.923095 1496.751,119.873107 1497,119.803893 L1497,119.803893 L1497,118.165826 C1496.83936,118.181206 1496.6988,118.19082 1496.57831,118.194665 C1496.45783,118.19851 1496.34538,118.200433 1496.24096,118.200433 C1495.84739,118.200433 1495.56627,118.158135 1495.39759,118.07354 C1495.09237,117.927421 1494.93976,117.639029 1494.93976,117.208363 L1494.93976,117.208363 L1494.93976,109.144917 L1497,109.144917 L1497,107.449171 L1494.93976,107.449171 L1494.93976,104 L1492.74699,104 L1492.74699,107.449171 L1491,107.449171 L1491,109.144917 L1492.74699,109.144917 L1492.74699,117.32372 C1492.74699,118.115838 1492.92771,118.759913 1493.28916,119.255948 C1493.6506,119.751983 1494.33735,120 1495.3494,120 Z M1503.37628,120 C1503.99114,120 1504.54226,119.938806 1505.02965,119.816417 C1505.93695,119.602236 1506.69802,119.189173 1507.31288,118.577229 C1507.6803,118.22536 1508.0121,117.772139 1508.30828,117.217564 C1508.60446,116.662989 1508.7788,116.160047 1508.83129,115.708738 L1508.83129,115.708738 L1506.84049,115.708738 C1506.69052,116.251839 1506.43558,116.729921 1506.07566,117.142983 C1505.44581,117.854369 1504.60225,118.210062 1503.54499,118.210062 C1502.41275,118.210062 1501.57669,117.833333 1501.03681,117.079876 C1500.49693,116.32642 1500.20825,115.326272 1500.17076,114.079435 L1500.17076,114.079435 L1509,114.079435 C1509,112.840247 1508.94001,111.937629 1508.82004,111.37158 C1508.68507,110.545455 1508.41513,109.822595 1508.01022,109.203001 C1507.59032,108.55281 1506.97921,108.023095 1506.17689,107.613857 C1505.37457,107.204619 1504.54601,107 1503.69121,107 C1501.99659,107 1500.6244,107.615769 1499.57464,108.847308 C1498.52488,110.078847 1498,111.681377 1498,113.654898 C1498,115.659017 1498.52113,117.217564 1499.56339,118.330538 C1500.60566,119.443513 1501.87662,120 1503.37628,120 Z M1507,112 L1500,112 C1500.03922,111.129338 1500.38824,110.411672 1501.04706,109.847003 C1501.70588,109.282334 1502.52157,109 1503.49412,109 C1504.85098,109 1505.81961,109.410095 1506.4,110.230284 C1506.71373,110.671924 1506.91373,111.26183 1507,112 L1507,112 Z M1523.58749,120 C1525.28279,120 1526.6087,119.3687 1527.56522,118.106101 C1528.52174,116.843501 1529,115.257737 1529,113.348806 C1529,111.33466 1528.51591,109.810897 1527.54772,108.77752 C1526.57953,107.744142 1525.31778,107.227454 1523.76246,107.227454 C1523.01591,107.227454 1522.32379,107.379642 1521.68611,107.684019 C1521.04843,107.988395 1520.50018,108.429929 1520.04136,109.008621 L1520.04136,109.008621 L1520.04136,103 L1518,103 L1518,119.616711 L1519.93637,119.616711 L1519.93637,118.072281 C1520.37964,118.650973 1520.79569,119.071839 1521.18452,119.334881 C1521.83775,119.778294 1522.63874,120 1523.58749,120 Z M1523.57071,118 C1522.04658,118 1521.00561,117.346863 1520.44781,116.04059 C1520.14927,115.346863 1520,114.442804 1520,113.328413 C1520,111.785978 1520.36336,110.678967 1521.09007,110.00738 C1521.81678,109.335793 1522.6633,109 1523.62963,109 C1524.73737,109 1525.57604,109.409594 1526.14562,110.228782 C1526.71521,111.04797 1527,112.081181 1527,113.328413 C1527,114.730627 1526.71521,115.859779 1526.14562,116.715867 C1525.57604,117.571956 1524.71773,118 1523.57071,118 Z M1535.14153,120 C1536.27842,120 1537.24517,119.694545 1538.04176,119.083636 C1538.44393,118.778182 1538.78036,118.403636 1539.05104,117.96 L1539.05104,117.96 L1539.02784,119.683636 L1541,119.683636 L1541,108 L1538.91183,108 L1538.91183,113.738182 C1538.91183,114.88 1538.76875,115.778182 1538.4826,116.432727 C1537.95669,117.654545 1536.96674,118.265455 1535.51276,118.265455 C1534.49961,118.265455 1533.80742,117.916364 1533.43619,117.218182 C1533.23511,116.84 1533.13457,116.352727 1533.13457,115.756364 L1533.13457,115.756364 L1533.13457,108 L1531,108 L1531,115.941818 C1531,116.938182 1531.17401,117.734545 1531.52204,118.330909 C1532.16396,119.443636 1533.37046,120 1535.14153,120 Z M1546,105 L1546,103 L1544,103 L1544,105 L1546,105 Z M1546,120 L1546,108 L1544,108 L1544,120 L1546,120 Z M1551,119 L1551,103 L1549,103 L1549,119 L1551,119 Z M1559.1117,120 C1559.96944,120 1560.73059,119.835097 1561.39515,119.505291 C1562.05971,119.175485 1562.63541,118.63955 1563.12223,117.897487 L1563.12223,117.897487 L1563.12223,119.572751 L1565,119.572751 L1565,103 L1562.99473,103 L1562.99473,109.082672 C1562.52336,108.520503 1562.10221,108.126984 1561.7313,107.902116 C1561.08992,107.512346 1560.29399,107.31746 1559.34352,107.31746 C1557.62803,107.31746 1556.30857,107.960207 1555.38514,109.245701 C1554.46171,110.531195 1554,112.050926 1554,113.804894 C1554,115.678792 1554.50615,117.179784 1555.51844,118.30787 C1556.53073,119.435957 1557.72849,120 1559.1117,120 Z M1559.62395,118 C1558.35694,118 1557.4362,117.572482 1556.86172,116.717445 C1556.28724,115.862408 1556,114.800983 1556,113.53317 C1556,112.044226 1556.33249,110.916462 1556.99747,110.149877 C1557.66245,109.383292 1558.53007,109 1559.60034,109 C1560.56043,109 1561.36706,109.359337 1562.02024,110.07801 C1562.67341,110.796683 1563,111.904177 1563,113.400491 C1563,114.882064 1562.68325,116.019042 1562.04975,116.811425 C1561.41625,117.603808 1560.60764,118 1559.62395,118 Z M1572.37628,120 C1572.99114,120 1573.54226,119.938806 1574.02965,119.816417 C1574.93695,119.602236 1575.69802,119.189173 1576.31288,118.577229 C1576.6803,118.22536 1577.0121,117.772139 1577.30828,117.217564 C1577.60446,116.662989 1577.7788,116.160047 1577.83129,115.708738 L1577.83129,115.708738 L1575.84049,115.708738 C1575.69052,116.251839 1575.43558,116.729921 1575.07566,117.142983 C1574.44581,117.854369 1573.60225,118.210062 1572.54499,118.210062 C1571.41275,118.210062 1570.57669,117.833333 1570.03681,117.079876 C1569.49693,116.32642 1569.20825,115.326272 1569.17076,114.079435 L1569.17076,114.079435 L1578,114.079435 C1578,112.840247 1577.94001,111.937629 1577.82004,111.37158 C1577.68507,110.545455 1577.41513,109.822595 1577.01022,109.203001 C1576.59032,108.55281 1575.97921,108.023095 1575.17689,107.613857 C1574.37457,107.204619 1573.54601,107 1572.69121,107 C1570.99659,107 1569.6244,107.615769 1568.57464,108.847308 C1567.52488,110.078847 1567,111.681377 1567,113.654898 C1567,115.659017 1567.52113,117.217564 1568.56339,118.330538 C1569.60566,119.443513 1570.87662,120 1572.37628,120 Z M1576,112 L1569,112 C1569.03922,111.129338 1569.38824,110.411672 1570.04706,109.847003 C1570.70588,109.282334 1571.52157,109 1572.49412,109 C1573.85098,109 1574.81961,109.410095 1575.4,110.230284 C1575.71373,110.671924 1575.91373,111.26183 1576,112 L1576,112 Z M1582.07294,119 L1582.07294,112.249315 C1582.07294,111.416438 1582.35317,110.680365 1582.91363,110.041096 C1583.47409,109.401826 1584.27639,109.082192 1585.32054,109.082192 C1585.44338,109.082192 1585.55662,109.085845 1585.66027,109.093151 C1585.76392,109.100457 1585.87716,109.115068 1586,109.136986 L1586,109.136986 L1586,107.054795 C1585.77735,107.032877 1585.61996,107.018265 1585.52783,107.010959 C1585.4357,107.003653 1585.37044,107 1585.33205,107 C1584.51056,107 1583.78503,107.283105 1583.15547,107.849315 C1582.52591,108.415525 1582.13052,108.89589 1581.96929,109.290411 L1581.96929,109.290411 L1581.96929,107.263014 L1580,107.263014 L1580,119 L1582.07294,119 Z" id="Laravelpowereddocumentationsitebuilder" fill="#64748B" fill-rule="nonzero"></path>
        </g>
    </g>
</svg>